<svg width="50" height="50" viewBox="0 0 50 50" fill="none" xmlns="http://www.w3.org/2000/svg">
<path d="M5 45C5 43.8954 5.89543 43 7 43H43C44.1046 43 45 43.8954 45 45V48H5V45Z" fill="#C4C4C4"/>
<path d="M7 42C7 41.4477 7.44772 41 8 41H42C42.5523 41 43 41.4477 43 42V43H7V42Z" fill="#C4C4C4"/>
<rect x="11" y="12" width="28" height="27" fill="#C4C4C4"/>
<path d="M9 41C9 39.8954 9.89543 39 11 39H39C40.1046 39 41 39.8954 41 41H9Z" fill="#C4C4C4"/>
<path d="M11 12L7 8H43L39 12H11Z" fill="#C4C4C4"/>
<path d="M7 4C7 3.44772 7.44772 3 8 3H12C12.5523 3 13 3.44772 13 4V8H7V4Z" fill="#C4C4C4"/>
<path d="M37 4C37 3.44772 37.4477 3 38 3H42C42.5523 3 43 3.44772 43 4V8H37V4Z" fill="#C4C4C4"/>
<path d="M20 4C20 3.44772 20.4477 3 21 3H29C29.5523 3 30 3.44772 30 4V8H20V4Z" fill="#C4C4C4"/>
</svg>
