<svg width="50" height="50" viewBox="0 0 50 50" fill="none" xmlns="http://www.w3.org/2000/svg">
<path d="M5 48H9C13 48 16.2288 45.6955 21 45.2727C24.1139 44.9968 25.8861 44.9968 29 45.2727C33.7712 45.6955 37 48 41 48H45C45 48 40.8609 45.6142 38 44.7273C33.8508 43.441 29 43.6364 28 43.0909C26.9546 42.5207 25.9763 42 25 42C24.0237 42 23 42.5455 22 43.0909C21 43.6364 16.1492 43.441 12 44.7273C9.13913 45.6142 5 48 5 48Z" fill="#C4C4C4"/>
<path d="M25 42.9506C25 42.9506 16.0581 43.735 14.6192 39.0505C13.3064 34.7766 14.0965 31.861 16.8436 28.65C17.5851 27.7833 32.4149 27.7833 33.1564 28.65C35.9035 31.861 36.6936 34.7766 35.3808 39.0505C33.9419 43.735 25 42.9506 25 42.9506Z" fill="#C4C4C4"/>
<path d="M11.0662 22.3C9.88141 13.8894 25 8 25 8C25 8 31.5 11 31.5 12C31.5 12.8051 26 18.5 27 19C28.2225 19.6113 30 19.5 30.5 19C30.8799 18.6201 32.5 14 33.5 14C34.5 14 38.7805 18.4044 38.9338 22.3C39.0893 26.2495 32.3652 30 32.3652 30H17.5025C17.5025 30 11.5474 25.7162 11.0662 22.3Z" fill="#C4C4C4"/>
<circle cx="25" cy="7" r="4" fill="#C4C4C4"/>
</svg>
