<svg width="50" height="50" viewBox="0 0 50 50" fill="none" xmlns="http://www.w3.org/2000/svg">
<path d="M10 36C10 30 40 30 40 36C40 36 39 37.7651 39 39C39 40.2349 40 40.5919 40 42C40 43.4081 39 43.7651 39 45C39 46.2349 40 48 40 48H10C10 48 11 46.2349 11 45C11 43.7651 10 43.2349 10 42C10 40.7651 11 40.2349 11 39C11 37.7651 10 36 10 36Z" fill="#C4C4C4"/>
<path d="M13 34C13 34 4.34636 23.9778 8 19C10.8583 15.1059 15.4965 14.2528 20 16C23.6724 17.4248 24.7356 22.928 25 27.0857C25.2644 22.928 26.3276 17.4248 30 16C34.5035 14.2528 39.1417 15.1059 42 19C45.6536 23.9778 37 34 37 34H13Z" fill="#C4C4C4"/>
<path d="M28 19C28 12 22 12 22 19L25 30L28 19Z" fill="#C4C4C4"/>
<path d="M24 3H26V8H31V10H26V15H24V10H19V8H24V3Z" fill="#C4C4C4"/>
</svg>
