<svg width="50" height="50" viewBox="0 0 50 50" fill="none" xmlns="http://www.w3.org/2000/svg">
<path d="M24 20.5C22.155 19.3469 10 28 9 26.5C8 25 13 24 13 23C13 22 9 24 8 24C7 24 5 20.6947 5 19.5C5 18 9.77367 17.7263 12 15.5C14.5 13 14.9277 9.13297 18 6C19.2604 4.71465 20.239 3.88047 21 3.5C22 3 23.5 3 25 3C28.8462 3 30.8889 3 34 7C44.8889 21 44.5 48 44.5 48H10.5C5 48 17.899 40.9226 21.5 34C24.744 27.7638 25.845 21.6531 24 20.5Z" fill="#C4C4C4"/>
<path d="M31 1C28.0406 0.236289 23.5 8 23.5 8L28.5 9.5C28.5 9.5 33.707 1.69859 31 1Z" fill="#C4C4C4"/>
</svg>
