<svg width="50" height="50" viewBox="0 0 50 50" fill="none" xmlns="http://www.w3.org/2000/svg">
<path fill-rule="evenodd" clip-rule="evenodd" d="M16.0505 23.7016C19.4859 21.8477 23.0655 19.9159 24 20.5C25.845 21.6531 24.744 27.7638 21.5 34C19.8129 37.2433 16.0849 40.5205 13.1643 43.088C9.85102 46.0007 7.57678 48 10.5 48H44.5C44.5 48 44.8889 21 34 7C30.8889 3 28.8462 3 25 3C23.5 3 22 3 21 3.5C20.239 3.88047 19.2604 4.71465 18 6C16.3918 7.63995 15.5083 9.48102 14.6728 11.2219C13.9121 12.8068 13.1914 14.3086 12 15.5C10.9024 16.5976 9.18564 17.2206 7.72701 17.7499C6.22702 18.2942 5 18.7395 5 19.5C5 20.6947 7 24 8 24C8.37228 24 9.16034 23.7228 10.003 23.4264C11.4239 22.9267 13 22.3723 13 23C13 23.4153 12.1375 23.8307 11.2005 24.2818C9.88165 24.9169 8.41534 25.623 9 26.5C9.49349 27.2402 12.7036 25.5079 16.0505 23.7016ZM23 8.06047C23 8.06047 20.6132 7.74362 19.5 8.56047C18.3011 9.44025 18 12.0605 18 12.0605C18 12.0605 20.909 11.4242 22 10.0605C22.5455 9.37859 23 8.06047 23 8.06047Z" fill="#C4C4C4"/>
<path d="M31 1C28.0406 0.236289 23.5 8 23.5 8L28.5 9.5C28.5 9.5 33.707 1.69859 31 1Z" fill="#C4C4C4"/>
</svg>
